<?xml version="1.0" encoding="utf-8"?>
<svg xmlns="http://www.w3.org/2000/svg" xmlns:xlink="http://www.w3.org/1999/xlink" xml:space="preserve" width="396" height="396" viewBox="0 0 396 396"><rect width="396" height="396" fill="#ffffff" x="0" y="0"/><g fill="#000000">
<g transform="translate(132,24) scale(2.06)"><rect width="6" height="6"/></g>
<g transform="translate(180,24) scale(2.06)"><rect width="6" height="6"/></g>
<g transform="translate(192,24) scale(2.06)"><rect width="6" height="6"/></g>
<g transform="translate(216,24) scale(2.06)"><rect width="6" height="6"/></g>
<g transform="translate(228,24) scale(2.06)"><rect width="6" height="6"/></g>
<g transform="translate(240,24) scale(2.06)"><rect width="6" height="6"/></g>
<g transform="translate(252,24) scale(2.06)"><rect width="6" height="6"/></g>
<g transform="translate(264,24) scale(2.06)"><rect width="6" height="6"/></g>
<g transform="translate(120,36) scale(2.06)"><rect width="6" height="6"/></g>
<g transform="translate(132,36) scale(2.06)"><rect width="6" height="6"/></g>
<g transform="translate(156,36) scale(2.06)"><rect width="6" height="6"/></g>
<g transform="translate(168,36) scale(2.06)"><rect width="6" height="6"/></g>
<g transform="translate(180,36) scale(2.06)"><rect width="6" height="6"/></g>
<g transform="translate(204,36) scale(2.06)"><rect width="6" height="6"/></g>
<g transform="translate(264,36) scale(2.06)"><rect width="6" height="6"/></g>
<g transform="translate(132,48) scale(2.06)"><rect width="6" height="6"/></g>
<g transform="translate(144,48) scale(2.06)"><rect width="6" height="6"/></g>
<g transform="translate(156,48) scale(2.06)"><rect width="6" height="6"/></g>
<g transform="translate(252,48) scale(2.06)"><rect width="6" height="6"/></g>
<g transform="translate(264,48) scale(2.06)"><rect width="6" height="6"/></g>
<g transform="translate(120,60) scale(2.06)"><rect width="6" height="6"/></g>
<g transform="translate(132,60) scale(2.06)"><rect width="6" height="6"/></g>
<g transform="translate(156,60) scale(2.06)"><rect width="6" height="6"/></g>
<g transform="translate(192,60) scale(2.06)"><rect width="6" height="6"/></g>
<g transform="translate(216,60) scale(2.06)"><rect width="6" height="6"/></g>
<g transform="translate(228,60) scale(2.06)"><rect width="6" height="6"/></g>
<g transform="translate(240,60) scale(2.06)"><rect width="6" height="6"/></g>
<g transform="translate(252,60) scale(2.06)"><rect width="6" height="6"/></g>
<g transform="translate(144,72) scale(2.06)"><rect width="6" height="6"/></g>
<g transform="translate(168,72) scale(2.06)"><rect width="6" height="6"/></g>
<g transform="translate(204,72) scale(2.06)"><rect width="6" height="6"/></g>
<g transform="translate(216,72) scale(2.06)"><rect width="6" height="6"/></g>
<g transform="translate(228,72) scale(2.06)"><rect width="6" height="6"/></g>
<g transform="translate(240,72) scale(2.06)"><rect width="6" height="6"/></g>
<g transform="translate(252,72) scale(2.06)"><rect width="6" height="6"/></g>
<g transform="translate(264,72) scale(2.06)"><rect width="6" height="6"/></g>
<g transform="translate(120,84) scale(2.06)"><rect width="6" height="6"/></g>
<g transform="translate(144,84) scale(2.06)"><rect width="6" height="6"/></g>
<g transform="translate(180,84) scale(2.06)"><rect width="6" height="6"/></g>
<g transform="translate(204,84) scale(2.06)"><rect width="6" height="6"/></g>
<g transform="translate(216,84) scale(2.06)"><rect width="6" height="6"/></g>
<g transform="translate(228,84) scale(2.06)"><rect width="6" height="6"/></g>
<g transform="translate(264,84) scale(2.06)"><rect width="6" height="6"/></g>
<g transform="translate(120,96) scale(2.06)"><rect width="6" height="6"/></g>
<g transform="translate(144,96) scale(2.06)"><rect width="6" height="6"/></g>
<g transform="translate(168,96) scale(2.06)"><rect width="6" height="6"/></g>
<g transform="translate(192,96) scale(2.06)"><rect width="6" height="6"/></g>
<g transform="translate(216,96) scale(2.06)"><rect width="6" height="6"/></g>
<g transform="translate(240,96) scale(2.06)"><rect width="6" height="6"/></g>
<g transform="translate(264,96) scale(2.06)"><rect width="6" height="6"/></g>
<g transform="translate(168,108) scale(2.06)"><rect width="6" height="6"/></g>
<g transform="translate(216,108) scale(2.06)"><rect width="6" height="6"/></g>
<g transform="translate(252,108) scale(2.06)"><rect width="6" height="6"/></g>
<g transform="translate(24,120) scale(2.06)"><rect width="6" height="6"/></g>
<g transform="translate(36,120) scale(2.06)"><rect width="6" height="6"/></g>
<g transform="translate(48,120) scale(2.06)"><rect width="6" height="6"/></g>
<g transform="translate(60,120) scale(2.06)"><rect width="6" height="6"/></g>
<g transform="translate(72,120) scale(2.06)"><rect width="6" height="6"/></g>
<g transform="translate(96,120) scale(2.06)"><rect width="6" height="6"/></g>
<g transform="translate(108,120) scale(2.06)"><rect width="6" height="6"/></g>
<g transform="translate(120,120) scale(2.06)"><rect width="6" height="6"/></g>
<g transform="translate(132,120) scale(2.06)"><rect width="6" height="6"/></g>
<g transform="translate(144,120) scale(2.06)"><rect width="6" height="6"/></g>
<g transform="translate(168,120) scale(2.06)"><rect width="6" height="6"/></g>
<g transform="translate(192,120) scale(2.06)"><rect width="6" height="6"/></g>
<g transform="translate(216,120) scale(2.06)"><rect width="6" height="6"/></g>
<g transform="translate(228,120) scale(2.06)"><rect width="6" height="6"/></g>
<g transform="translate(276,120) scale(2.06)"><rect width="6" height="6"/></g>
<g transform="translate(300,120) scale(2.06)"><rect width="6" height="6"/></g>
<g transform="translate(324,120) scale(2.06)"><rect width="6" height="6"/></g>
<g transform="translate(348,120) scale(2.06)"><rect width="6" height="6"/></g>
<g transform="translate(24,132) scale(2.06)"><rect width="6" height="6"/></g>
<g transform="translate(36,132) scale(2.06)"><rect width="6" height="6"/></g>
<g transform="translate(72,132) scale(2.06)"><rect width="6" height="6"/></g>
<g transform="translate(84,132) scale(2.06)"><rect width="6" height="6"/></g>
<g transform="translate(108,132) scale(2.06)"><rect width="6" height="6"/></g>
<g transform="translate(120,132) scale(2.06)"><rect width="6" height="6"/></g>
<g transform="translate(132,132) scale(2.06)"><rect width="6" height="6"/></g>
<g transform="translate(204,132) scale(2.06)"><rect width="6" height="6"/></g>
<g transform="translate(216,132) scale(2.06)"><rect width="6" height="6"/></g>
<g transform="translate(252,132) scale(2.06)"><rect width="6" height="6"/></g>
<g transform="translate(264,132) scale(2.06)"><rect width="6" height="6"/></g>
<g transform="translate(288,132) scale(2.06)"><rect width="6" height="6"/></g>
<g transform="translate(300,132) scale(2.06)"><rect width="6" height="6"/></g>
<g transform="translate(312,132) scale(2.06)"><rect width="6" height="6"/></g>
<g transform="translate(360,132) scale(2.06)"><rect width="6" height="6"/></g>
<g transform="translate(24,144) scale(2.06)"><rect width="6" height="6"/></g>
<g transform="translate(36,144) scale(2.06)"><rect width="6" height="6"/></g>
<g transform="translate(72,144) scale(2.06)"><rect width="6" height="6"/></g>
<g transform="translate(96,144) scale(2.06)"><rect width="6" height="6"/></g>
<g transform="translate(108,144) scale(2.06)"><rect width="6" height="6"/></g>
<g transform="translate(120,144) scale(2.06)"><rect width="6" height="6"/></g>
<g transform="translate(132,144) scale(2.06)"><rect width="6" height="6"/></g>
<g transform="translate(156,144) scale(2.06)"><rect width="6" height="6"/></g>
<g transform="translate(168,144) scale(2.06)"><rect width="6" height="6"/></g>
<g transform="translate(180,144) scale(2.06)"><rect width="6" height="6"/></g>
<g transform="translate(192,144) scale(2.06)"><rect width="6" height="6"/></g>
<g transform="translate(204,144) scale(2.06)"><rect width="6" height="6"/></g>
<g transform="translate(216,144) scale(2.06)"><rect width="6" height="6"/></g>
<g transform="translate(228,144) scale(2.06)"><rect width="6" height="6"/></g>
<g transform="translate(276,144) scale(2.06)"><rect width="6" height="6"/></g>
<g transform="translate(288,144) scale(2.06)"><rect width="6" height="6"/></g>
<g transform="translate(36,156) scale(2.06)"><rect width="6" height="6"/></g>
<g transform="translate(72,156) scale(2.06)"><rect width="6" height="6"/></g>
<g transform="translate(120,156) scale(2.06)"><rect width="6" height="6"/></g>
<g transform="translate(132,156) scale(2.06)"><rect width="6" height="6"/></g>
<g transform="translate(144,156) scale(2.06)"><rect width="6" height="6"/></g>
<g transform="translate(156,156) scale(2.06)"><rect width="6" height="6"/></g>
<g transform="translate(192,156) scale(2.06)"><rect width="6" height="6"/></g>
<g transform="translate(204,156) scale(2.06)"><rect width="6" height="6"/></g>
<g transform="translate(252,156) scale(2.06)"><rect width="6" height="6"/></g>
<g transform="translate(264,156) scale(2.06)"><rect width="6" height="6"/></g>
<g transform="translate(300,156) scale(2.06)"><rect width="6" height="6"/></g>
<g transform="translate(324,156) scale(2.06)"><rect width="6" height="6"/></g>
<g transform="translate(348,156) scale(2.06)"><rect width="6" height="6"/></g>
<g transform="translate(24,168) scale(2.06)"><rect width="6" height="6"/></g>
<g transform="translate(72,168) scale(2.06)"><rect width="6" height="6"/></g>
<g transform="translate(96,168) scale(2.06)"><rect width="6" height="6"/></g>
<g transform="translate(120,168) scale(2.06)"><rect width="6" height="6"/></g>
<g transform="translate(132,168) scale(2.06)"><rect width="6" height="6"/></g>
<g transform="translate(156,168) scale(2.06)"><rect width="6" height="6"/></g>
<g transform="translate(192,168) scale(2.06)"><rect width="6" height="6"/></g>
<g transform="translate(204,168) scale(2.06)"><rect width="6" height="6"/></g>
<g transform="translate(216,168) scale(2.06)"><rect width="6" height="6"/></g>
<g transform="translate(228,168) scale(2.06)"><rect width="6" height="6"/></g>
<g transform="translate(252,168) scale(2.06)"><rect width="6" height="6"/></g>
<g transform="translate(324,168) scale(2.06)"><rect width="6" height="6"/></g>
<g transform="translate(336,168) scale(2.06)"><rect width="6" height="6"/></g>
<g transform="translate(36,180) scale(2.06)"><rect width="6" height="6"/></g>
<g transform="translate(60,180) scale(2.06)"><rect width="6" height="6"/></g>
<g transform="translate(84,180) scale(2.06)"><rect width="6" height="6"/></g>
<g transform="translate(108,180) scale(2.06)"><rect width="6" height="6"/></g>
<g transform="translate(132,180) scale(2.06)"><rect width="6" height="6"/></g>
<g transform="translate(144,180) scale(2.06)"><rect width="6" height="6"/></g>
<g transform="translate(168,180) scale(2.06)"><rect width="6" height="6"/></g>
<g transform="translate(192,180) scale(2.06)"><rect width="6" height="6"/></g>
<g transform="translate(204,180) scale(2.06)"><rect width="6" height="6"/></g>
<g transform="translate(216,180) scale(2.06)"><rect width="6" height="6"/></g>
<g transform="translate(240,180) scale(2.06)"><rect width="6" height="6"/></g>
<g transform="translate(252,180) scale(2.06)"><rect width="6" height="6"/></g>
<g transform="translate(276,180) scale(2.06)"><rect width="6" height="6"/></g>
<g transform="translate(288,180) scale(2.06)"><rect width="6" height="6"/></g>
<g transform="translate(312,180) scale(2.06)"><rect width="6" height="6"/></g>
<g transform="translate(360,180) scale(2.06)"><rect width="6" height="6"/></g>
<g transform="translate(84,192) scale(2.06)"><rect width="6" height="6"/></g>
<g transform="translate(96,192) scale(2.06)"><rect width="6" height="6"/></g>
<g transform="translate(108,192) scale(2.06)"><rect width="6" height="6"/></g>
<g transform="translate(132,192) scale(2.06)"><rect width="6" height="6"/></g>
<g transform="translate(144,192) scale(2.06)"><rect width="6" height="6"/></g>
<g transform="translate(204,192) scale(2.06)"><rect width="6" height="6"/></g>
<g transform="translate(240,192) scale(2.06)"><rect width="6" height="6"/></g>
<g transform="translate(264,192) scale(2.06)"><rect width="6" height="6"/></g>
<g transform="translate(288,192) scale(2.06)"><rect width="6" height="6"/></g>
<g transform="translate(300,192) scale(2.06)"><rect width="6" height="6"/></g>
<g transform="translate(324,192) scale(2.06)"><rect width="6" height="6"/></g>
<g transform="translate(336,192) scale(2.06)"><rect width="6" height="6"/></g>
<g transform="translate(24,204) scale(2.06)"><rect width="6" height="6"/></g>
<g transform="translate(48,204) scale(2.06)"><rect width="6" height="6"/></g>
<g transform="translate(60,204) scale(2.06)"><rect width="6" height="6"/></g>
<g transform="translate(84,204) scale(2.06)"><rect width="6" height="6"/></g>
<g transform="translate(120,204) scale(2.06)"><rect width="6" height="6"/></g>
<g transform="translate(144,204) scale(2.06)"><rect width="6" height="6"/></g>
<g transform="translate(168,204) scale(2.06)"><rect width="6" height="6"/></g>
<g transform="translate(264,204) scale(2.06)"><rect width="6" height="6"/></g>
<g transform="translate(288,204) scale(2.06)"><rect width="6" height="6"/></g>
<g transform="translate(300,204) scale(2.06)"><rect width="6" height="6"/></g>
<g transform="translate(312,204) scale(2.06)"><rect width="6" height="6"/></g>
<g transform="translate(348,204) scale(2.06)"><rect width="6" height="6"/></g>
<g transform="translate(24,216) scale(2.06)"><rect width="6" height="6"/></g>
<g transform="translate(48,216) scale(2.06)"><rect width="6" height="6"/></g>
<g transform="translate(72,216) scale(2.06)"><rect width="6" height="6"/></g>
<g transform="translate(84,216) scale(2.06)"><rect width="6" height="6"/></g>
<g transform="translate(96,216) scale(2.06)"><rect width="6" height="6"/></g>
<g transform="translate(108,216) scale(2.06)"><rect width="6" height="6"/></g>
<g transform="translate(120,216) scale(2.06)"><rect width="6" height="6"/></g>
<g transform="translate(144,216) scale(2.06)"><rect width="6" height="6"/></g>
<g transform="translate(168,216) scale(2.06)"><rect width="6" height="6"/></g>
<g transform="translate(180,216) scale(2.06)"><rect width="6" height="6"/></g>
<g transform="translate(192,216) scale(2.06)"><rect width="6" height="6"/></g>
<g transform="translate(204,216) scale(2.06)"><rect width="6" height="6"/></g>
<g transform="translate(216,216) scale(2.06)"><rect width="6" height="6"/></g>
<g transform="translate(228,216) scale(2.06)"><rect width="6" height="6"/></g>
<g transform="translate(300,216) scale(2.06)"><rect width="6" height="6"/></g>
<g transform="translate(324,216) scale(2.06)"><rect width="6" height="6"/></g>
<g transform="translate(336,216) scale(2.06)"><rect width="6" height="6"/></g>
<g transform="translate(24,228) scale(2.06)"><rect width="6" height="6"/></g>
<g transform="translate(48,228) scale(2.06)"><rect width="6" height="6"/></g>
<g transform="translate(108,228) scale(2.06)"><rect width="6" height="6"/></g>
<g transform="translate(144,228) scale(2.06)"><rect width="6" height="6"/></g>
<g transform="translate(252,228) scale(2.06)"><rect width="6" height="6"/></g>
<g transform="translate(264,228) scale(2.06)"><rect width="6" height="6"/></g>
<g transform="translate(288,228) scale(2.06)"><rect width="6" height="6"/></g>
<g transform="translate(300,228) scale(2.06)"><rect width="6" height="6"/></g>
<g transform="translate(312,228) scale(2.06)"><rect width="6" height="6"/></g>
<g transform="translate(336,228) scale(2.06)"><rect width="6" height="6"/></g>
<g transform="translate(360,228) scale(2.06)"><rect width="6" height="6"/></g>
<g transform="translate(24,240) scale(2.06)"><rect width="6" height="6"/></g>
<g transform="translate(60,240) scale(2.06)"><rect width="6" height="6"/></g>
<g transform="translate(96,240) scale(2.06)"><rect width="6" height="6"/></g>
<g transform="translate(108,240) scale(2.06)"><rect width="6" height="6"/></g>
<g transform="translate(132,240) scale(2.06)"><rect width="6" height="6"/></g>
<g transform="translate(144,240) scale(2.06)"><rect width="6" height="6"/></g>
<g transform="translate(156,240) scale(2.06)"><rect width="6" height="6"/></g>
<g transform="translate(168,240) scale(2.06)"><rect width="6" height="6"/></g>
<g transform="translate(192,240) scale(2.06)"><rect width="6" height="6"/></g>
<g transform="translate(204,240) scale(2.06)"><rect width="6" height="6"/></g>
<g transform="translate(216,240) scale(2.06)"><rect width="6" height="6"/></g>
<g transform="translate(300,240) scale(2.06)"><rect width="6" height="6"/></g>
<g transform="translate(336,240) scale(2.06)"><rect width="6" height="6"/></g>
<g transform="translate(24,252) scale(2.06)"><rect width="6" height="6"/></g>
<g transform="translate(60,252) scale(2.06)"><rect width="6" height="6"/></g>
<g transform="translate(72,252) scale(2.06)"><rect width="6" height="6"/></g>
<g transform="translate(84,252) scale(2.06)"><rect width="6" height="6"/></g>
<g transform="translate(120,252) scale(2.06)"><rect width="6" height="6"/></g>
<g transform="translate(144,252) scale(2.06)"><rect width="6" height="6"/></g>
<g transform="translate(156,252) scale(2.06)"><rect width="6" height="6"/></g>
<g transform="translate(204,252) scale(2.06)"><rect width="6" height="6"/></g>
<g transform="translate(216,252) scale(2.06)"><rect width="6" height="6"/></g>
<g transform="translate(240,252) scale(2.06)"><rect width="6" height="6"/></g>
<g transform="translate(252,252) scale(2.06)"><rect width="6" height="6"/></g>
<g transform="translate(300,252) scale(2.06)"><rect width="6" height="6"/></g>
<g transform="translate(312,252) scale(2.06)"><rect width="6" height="6"/></g>
<g transform="translate(348,252) scale(2.06)"><rect width="6" height="6"/></g>
<g transform="translate(24,264) scale(2.06)"><rect width="6" height="6"/></g>
<g transform="translate(48,264) scale(2.06)"><rect width="6" height="6"/></g>
<g transform="translate(96,264) scale(2.06)"><rect width="6" height="6"/></g>
<g transform="translate(144,264) scale(2.06)"><rect width="6" height="6"/></g>
<g transform="translate(156,264) scale(2.06)"><rect width="6" height="6"/></g>
<g transform="translate(180,264) scale(2.06)"><rect width="6" height="6"/></g>
<g transform="translate(192,264) scale(2.06)"><rect width="6" height="6"/></g>
<g transform="translate(216,264) scale(2.06)"><rect width="6" height="6"/></g>
<g transform="translate(228,264) scale(2.06)"><rect width="6" height="6"/></g>
<g transform="translate(264,264) scale(2.06)"><rect width="6" height="6"/></g>
<g transform="translate(276,264) scale(2.06)"><rect width="6" height="6"/></g>
<g transform="translate(288,264) scale(2.06)"><rect width="6" height="6"/></g>
<g transform="translate(300,264) scale(2.06)"><rect width="6" height="6"/></g>
<g transform="translate(312,264) scale(2.06)"><rect width="6" height="6"/></g>
<g transform="translate(336,264) scale(2.06)"><rect width="6" height="6"/></g>
<g transform="translate(348,264) scale(2.06)"><rect width="6" height="6"/></g>
<g transform="translate(360,264) scale(2.06)"><rect width="6" height="6"/></g>
<g transform="translate(120,276) scale(2.06)"><rect width="6" height="6"/></g>
<g transform="translate(168,276) scale(2.06)"><rect width="6" height="6"/></g>
<g transform="translate(192,276) scale(2.06)"><rect width="6" height="6"/></g>
<g transform="translate(240,276) scale(2.06)"><rect width="6" height="6"/></g>
<g transform="translate(264,276) scale(2.06)"><rect width="6" height="6"/></g>
<g transform="translate(312,276) scale(2.06)"><rect width="6" height="6"/></g>
<g transform="translate(324,276) scale(2.06)"><rect width="6" height="6"/></g>
<g transform="translate(336,276) scale(2.06)"><rect width="6" height="6"/></g>
<g transform="translate(348,276) scale(2.06)"><rect width="6" height="6"/></g>
<g transform="translate(360,276) scale(2.06)"><rect width="6" height="6"/></g>
<g transform="translate(120,288) scale(2.06)"><rect width="6" height="6"/></g>
<g transform="translate(132,288) scale(2.06)"><rect width="6" height="6"/></g>
<g transform="translate(204,288) scale(2.06)"><rect width="6" height="6"/></g>
<g transform="translate(228,288) scale(2.06)"><rect width="6" height="6"/></g>
<g transform="translate(240,288) scale(2.06)"><rect width="6" height="6"/></g>
<g transform="translate(252,288) scale(2.06)"><rect width="6" height="6"/></g>
<g transform="translate(264,288) scale(2.06)"><rect width="6" height="6"/></g>
<g transform="translate(288,288) scale(2.06)"><rect width="6" height="6"/></g>
<g transform="translate(312,288) scale(2.06)"><rect width="6" height="6"/></g>
<g transform="translate(324,288) scale(2.06)"><rect width="6" height="6"/></g>
<g transform="translate(336,288) scale(2.06)"><rect width="6" height="6"/></g>
<g transform="translate(168,300) scale(2.06)"><rect width="6" height="6"/></g>
<g transform="translate(192,300) scale(2.06)"><rect width="6" height="6"/></g>
<g transform="translate(216,300) scale(2.06)"><rect width="6" height="6"/></g>
<g transform="translate(252,300) scale(2.06)"><rect width="6" height="6"/></g>
<g transform="translate(264,300) scale(2.06)"><rect width="6" height="6"/></g>
<g transform="translate(312,300) scale(2.06)"><rect width="6" height="6"/></g>
<g transform="translate(360,300) scale(2.06)"><rect width="6" height="6"/></g>
<g transform="translate(120,312) scale(2.06)"><rect width="6" height="6"/></g>
<g transform="translate(132,312) scale(2.06)"><rect width="6" height="6"/></g>
<g transform="translate(168,312) scale(2.06)"><rect width="6" height="6"/></g>
<g transform="translate(192,312) scale(2.06)"><rect width="6" height="6"/></g>
<g transform="translate(204,312) scale(2.06)"><rect width="6" height="6"/></g>
<g transform="translate(216,312) scale(2.06)"><rect width="6" height="6"/></g>
<g transform="translate(228,312) scale(2.06)"><rect width="6" height="6"/></g>
<g transform="translate(264,312) scale(2.06)"><rect width="6" height="6"/></g>
<g transform="translate(276,312) scale(2.06)"><rect width="6" height="6"/></g>
<g transform="translate(288,312) scale(2.06)"><rect width="6" height="6"/></g>
<g transform="translate(300,312) scale(2.06)"><rect width="6" height="6"/></g>
<g transform="translate(312,312) scale(2.06)"><rect width="6" height="6"/></g>
<g transform="translate(336,312) scale(2.06)"><rect width="6" height="6"/></g>
<g transform="translate(348,312) scale(2.06)"><rect width="6" height="6"/></g>
<g transform="translate(360,312) scale(2.06)"><rect width="6" height="6"/></g>
<g transform="translate(120,324) scale(2.06)"><rect width="6" height="6"/></g>
<g transform="translate(132,324) scale(2.06)"><rect width="6" height="6"/></g>
<g transform="translate(144,324) scale(2.06)"><rect width="6" height="6"/></g>
<g transform="translate(216,324) scale(2.06)"><rect width="6" height="6"/></g>
<g transform="translate(228,324) scale(2.06)"><rect width="6" height="6"/></g>
<g transform="translate(240,324) scale(2.06)"><rect width="6" height="6"/></g>
<g transform="translate(252,324) scale(2.06)"><rect width="6" height="6"/></g>
<g transform="translate(300,324) scale(2.06)"><rect width="6" height="6"/></g>
<g transform="translate(324,324) scale(2.06)"><rect width="6" height="6"/></g>
<g transform="translate(336,324) scale(2.06)"><rect width="6" height="6"/></g>
<g transform="translate(348,324) scale(2.06)"><rect width="6" height="6"/></g>
<g transform="translate(360,324) scale(2.06)"><rect width="6" height="6"/></g>
<g transform="translate(120,336) scale(2.06)"><rect width="6" height="6"/></g>
<g transform="translate(156,336) scale(2.06)"><rect width="6" height="6"/></g>
<g transform="translate(168,336) scale(2.06)"><rect width="6" height="6"/></g>
<g transform="translate(192,336) scale(2.06)"><rect width="6" height="6"/></g>
<g transform="translate(204,336) scale(2.06)"><rect width="6" height="6"/></g>
<g transform="translate(216,336) scale(2.06)"><rect width="6" height="6"/></g>
<g transform="translate(240,336) scale(2.06)"><rect width="6" height="6"/></g>
<g transform="translate(252,336) scale(2.06)"><rect width="6" height="6"/></g>
<g transform="translate(288,336) scale(2.06)"><rect width="6" height="6"/></g>
<g transform="translate(300,336) scale(2.06)"><rect width="6" height="6"/></g>
<g transform="translate(312,336) scale(2.06)"><rect width="6" height="6"/></g>
<g transform="translate(324,336) scale(2.06)"><rect width="6" height="6"/></g>
<g transform="translate(336,336) scale(2.06)"><rect width="6" height="6"/></g>
<g transform="translate(348,336) scale(2.06)"><rect width="6" height="6"/></g>
<g transform="translate(120,348) scale(2.06)"><rect width="6" height="6"/></g>
<g transform="translate(132,348) scale(2.06)"><rect width="6" height="6"/></g>
<g transform="translate(144,348) scale(2.06)"><rect width="6" height="6"/></g>
<g transform="translate(156,348) scale(2.06)"><rect width="6" height="6"/></g>
<g transform="translate(192,348) scale(2.06)"><rect width="6" height="6"/></g>
<g transform="translate(216,348) scale(2.06)"><rect width="6" height="6"/></g>
<g transform="translate(240,348) scale(2.06)"><rect width="6" height="6"/></g>
<g transform="translate(252,348) scale(2.06)"><rect width="6" height="6"/></g>
<g transform="translate(264,348) scale(2.06)"><rect width="6" height="6"/></g>
<g transform="translate(300,348) scale(2.06)"><rect width="6" height="6"/></g>
<g transform="translate(324,348) scale(2.06)"><rect width="6" height="6"/></g>
<g transform="translate(348,348) scale(2.06)"><rect width="6" height="6"/></g>
<g transform="translate(120,360) scale(2.06)"><rect width="6" height="6"/></g>
<g transform="translate(144,360) scale(2.06)"><rect width="6" height="6"/></g>
<g transform="translate(156,360) scale(2.06)"><rect width="6" height="6"/></g>
<g transform="translate(168,360) scale(2.06)"><rect width="6" height="6"/></g>
<g transform="translate(216,360) scale(2.06)"><rect width="6" height="6"/></g>
<g transform="translate(228,360) scale(2.06)"><rect width="6" height="6"/></g>
<g transform="translate(240,360) scale(2.06)"><rect width="6" height="6"/></g>
<g transform="translate(252,360) scale(2.06)"><rect width="6" height="6"/></g>
<g transform="translate(276,360) scale(2.06)"><rect width="6" height="6"/></g>
<g transform="translate(300,360) scale(2.06)"><rect width="6" height="6"/></g>
<g transform="translate(312,360) scale(2.06)"><rect width="6" height="6"/></g>
<g transform="translate(324,360) scale(2.06)"><rect width="6" height="6"/></g>
<g transform="translate(336,360) scale(2.06)"><rect width="6" height="6"/></g>
<g transform="translate(24,24)"><g transform="scale(6)"><path d="M0,0v14h14V0H0z M12,12H2V2h10V12z"/></g></g>
<g transform="translate(288,24)"><g transform="scale(6)"><path d="M0,0v14h14V0H0z M12,12H2V2h10V12z"/></g></g>
<g transform="translate(24,288)"><g transform="scale(6)"><path d="M0,0v14h14V0H0z M12,12H2V2h10V12z"/></g></g>
<g transform="translate(48,48)"><g transform="scale(6)"><rect width="6" height="6"/></g></g>
<g transform="translate(312,48)"><g transform="scale(6)"><rect width="6" height="6"/></g></g>
<g transform="translate(48,312)"><g transform="scale(6)"><rect width="6" height="6"/></g></g>
</g></svg>
